<?xml version="1.0" standalone="no"?>
<!DOCTYPE svg PUBLIC "-//W3C//DTD SVG 1.1//EN" "http://www.w3.org/Graphics/SVG/1.1/DTD/svg11.dtd" >
<svg xmlns="http://www.w3.org/2000/svg">
<metadata></metadata>
<defs>
<font id="not_just_groovyregular" horiz-adv-x="1200" >
<font-face units-per-em="2048" ascent="1638" descent="-410" />
<missing-glyph horiz-adv-x="500" />
<glyph horiz-adv-x="2048" />
<glyph horiz-adv-x="2048" />
<glyph unicode="&#xd;" horiz-adv-x="500" />
<glyph unicode=" "  horiz-adv-x="500" />
<glyph unicode="&#x09;" horiz-adv-x="500" />
<glyph unicode="&#xa0;" horiz-adv-x="500" />
<glyph unicode="!" horiz-adv-x="300" d="M25 75q0 100 100 100t100 -100t-100 -100t-100 100zM50 300v1200h150v-1200h-150z" />
<glyph unicode="&#x22;" horiz-adv-x="672" d="M101 1500q0 37 20.5 57t59.5 20t60.5 -19.5t21.5 -56.5q0 -8 -4 -34l-62 -359h-30l-62 359q-4 23 -4 33zM413 1500q0 37 20.5 57t59.5 20t60.5 -19.5t21.5 -56.5q0 -8 -4 -34l-62 -359h-30l-62 359q-4 23 -4 33z" />
<glyph unicode="#" horiz-adv-x="1336" d="M117 472l30 98h271l86 290h-295l29 97h295l140 477h93l-141 -477h242l142 477h92l-141 -477h259l-29 -97h-259l-83 -290h279l-30 -98h-280l-140 -472h-92l139 472h-240l-142 -472h-92l140 472h-273zM511 569h242l86 290h-243z" />
<glyph unicode="$" horiz-adv-x="1014" d="M113 1079q0 166 125 271q105 88 266 102v100h73v-102q68 -8 141 -35q10 -6 19 -6q25 0 41 45h50l103 -282h-49q-60 134 -168 179q-74 30 -137 39v-540q241 -93 322.5 -183t81.5 -264q0 -197 -119.5 -300t-284.5 -120v-239h-73v237q-188 3 -266 38q-10 6 -19 6 q-25 0 -41 -45h-50v331h49q50 -183 152.5 -226t174.5 -43v635q-214 67 -299 153q-92 91 -92 249zM219 1139q0 -98 55 -153q52 -54 230 -113v520q-119 -5 -199 -72q-86 -73 -86 -182zM577 45q125 17 211.5 96t86.5 219q0 116 -69 183q-62 59 -229 112v-610z" />
<glyph unicode="%" horiz-adv-x="1610" d="M62 1080q0 100 52 190.5t144.5 139.5t190.5 49t190.5 -49t144.5 -139.5t52 -190.5q0 -99 -50.5 -188.5t-143 -140t-193.5 -50.5q-100 0 -192.5 50.5t-143.5 140t-51 188.5zM202 1128q0 -31 4 -62q13 -92 55.5 -173.5t106.5 -124.5q57 -40 114 -40q7 0 13 1q63 3 115 53 t73 136q13 54 13 111q0 32 -4 65q-12 93 -56 175.5t-107 124.5q-58 38 -115 38h-11q-61 -3 -113 -52t-73 -135q-15 -58 -15 -117zM297 -29l940 1461h84l-938 -1461h-86zM774 359q0 99 52 189.5t144.5 140t190.5 49.5q97 0 190 -49.5t145 -140t52 -189.5q0 -100 -50.5 -189.5 t-143 -139.5t-193.5 -50t-193 50t-143 139.5t-51 189.5zM914 406q0 -31 4 -62q13 -92 55.5 -173.5t106.5 -124.5q59 -39 116 -39h11q63 3 115 53t73 136q13 54 13 111q0 32 -4 65q-12 93 -56 175.5t-107 124.5q-58 38 -115 38h-11q-61 -3 -113 -52t-73 -135 q-15 -58 -15 -117z" />
<glyph unicode="&#x26;" horiz-adv-x="1683" d="M152 520q0 161 76 266.5t225 151.5q-42 61 -62.5 116t-20.5 111q0 105 77 197t182 92q68 0 142 -39q9 -6 18 -6q23 0 38 45h46l96 -281h-46q-55 133 -155 178q-85 37 -141 37q-65 0 -106 -45.5t-41 -117.5q0 -131 102 -267l531 -670q98 146 121 244q17 78 17 130 q0 97 -62 97h-90v50h443v-50h-90q-95 0 -145 -227q-31 -132 -155 -292q109 -136 248 -136h16q143 17 192 128l49 -1l-103 -231h-160q-56 0 -139 25t-167 132q-67 -74 -175 -123.5t-241 -49.5q-229 0 -374.5 150.5t-145.5 385.5zM256 589q0 -91 35.5 -181.5t101.5 -164.5 q72 -83 165 -127t194 -44q88 0 169 33.5t130 90.5l-554 683q-118 0 -179.5 -86t-61.5 -204z" />
<glyph unicode="'" horiz-adv-x="346" d="M101 1500q0 37 20.5 57t59.5 20t60.5 -19.5t21.5 -56.5q0 -8 -4 -34l-62 -359h-30l-62 359q-4 23 -4 33z" />
<glyph unicode="(" horiz-adv-x="758" d="M252 601q2 277 99.5 530t268.5 442h80q-172 -242 -230 -438q-57 -193 -57 -523v-22q0 -330 57 -522q58 -196 230 -438h-80q-171 189 -268.5 441.5t-99.5 529.5z" />
<glyph unicode=")" horiz-adv-x="758" d="M58 -370q172 242 230 438q57 192 57 522v22q0 330 -57 523q-58 196 -230 438h80q171 -189 268.5 -442t99.5 -530q-2 -277 -99.5 -529.5t-268.5 -441.5h-80z" />
<glyph unicode="*" horiz-adv-x="1024" d="M218 1333q0 17 6 36q11 35 36 53q17 12 34 12q9 0 18 -3q20 -6 74 -62q47 -49 112 -75q-4 71 -37 130q-37 66 -37 84q0 32 23.5 51.5t62.5 19.5q37 0 61.5 -18t24.5 -47q0 -21 -36 -89q-33 -61 -37 -130q66 25 113 75q51 55 69 61q11 3 21 3q18 0 35 -10q26 -17 38 -53 q6 -19 6 -36q0 -15 -4 -28q-10 -30 -38 -38q-6 -2 -19 -2q-25 0 -76 9q-28 5 -55 5q-41 0 -81 -11q44 -55 105 -83q68 -32 79 -47q13 -18 13 -38q0 -9 -2 -17q-8 -30 -39 -53q-29 -22 -59 -22q-1 0 -1 1q-31 0 -48 23q-12 17 -22 94q-10 67 -47 125q-38 -58 -46 -124 q-9 -75 -20 -90q-19 -25 -49 -27h-5q-28 0 -57 21q-30 21 -39 51q-4 10 -4 20q0 17 11 32q13 17 83 51q61 29 105 82q-41 11 -80 11q-27 0 -53 -5q-54 -11 -78 -11q-9 0 -14 2q-30 9 -41 38q-6 13 -6 29z" />
<glyph unicode="+" horiz-adv-x="1014" d="M87 647v140h350v369l1 1h139v-370h349l1 -1v-139h-350v-370h-140v370h-350z" />
<glyph unicode="," horiz-adv-x="400" d="M44 133l119 125q44 0 88.5 -65.5t44.5 -151.5q0 -109 -71 -226.5t-139 -117.5q73 86 87 233q0 119 -129 203z" />
<glyph unicode="-" horiz-adv-x="670" d="M116 437v83q0 29 41 29h356q41 0 41 -29v-83q0 -28 -40 -28h-358q-40 0 -40 28z" />
<glyph unicode="." horiz-adv-x="350" d="M50 100q0 100 100 100t100 -100t-100 -100t-100 100z" />
<glyph unicode="/" horiz-adv-x="569" d="M13 -50l541 1484h80l-541 -1484h-80z" />
<glyph unicode="0" d="M50 350v800q0 350 350 350h350q350 0 350 -350v-800q0 -350 -350 -350h-350q-350 0 -350 350zM200 350q0 -200 200 -200h350q200 0 200 200v800q0 200 -200 200h-350q-200 0 -200 -200v-800z" />
<glyph unicode="1" horiz-adv-x="300" d="M50 0v1500h150v-1500h-150z" />
<glyph unicode="2" d="M50 0v400q0 400 350 400h300q250 0 250 250q0 300 -250 300h-650v150h650q400 0 400 -450q0 -400 -400 -400h-300q-200 0 -200 -250v-250h900v-150h-1050z" />
<glyph unicode="3" d="M50 0v150h700q200 0 200 275t-200 275h-225v150h175q250 0 250 250t-250 250h-650v150h650q400 0 400 -400q0 -222 -123 -321q123 -102 123 -354q0 -425 -350 -425h-700z" />
<glyph unicode="4" d="M50 600v900h150v-750h750v750h150v-1500h-150v600h-900z" />
<glyph unicode="5" d="M50 0v150h650q250 0 250 300q0 250 -250 250h-650v800h1050v-150h-900v-500h500q400 0 400 -400q0 -450 -400 -450h-650z" />
<glyph unicode="6" d="M50 350v800q0 350 350 350h700v-150h-700q-200 0 -200 -200v-100h550q350 0 350 -350v-350q0 -350 -350 -350h-350q-350 0 -350 350zM200 350q0 -200 200 -200h350q200 0 200 200v350q0 200 -200 200h-550v-550z" />
<glyph unicode="7" d="M50 1350v150h1050v-1500h-150v1350h-900z" />
<glyph unicode="8" d="M50 425q0 247 136 351q-136 98 -136 324q0 400 425 400h200q425 0 425 -400q0 -223 -139 -321q139 -103 139 -354q0 -425 -400 -425h-250q-400 0 -400 425zM200 425q0 -275 250 -275h250q250 0 250 275t-250 275h-250q-250 0 -250 -275zM200 1100q0 -250 275 -250h175 q300 0 300 250t-275 250h-200q-275 0 -275 -250z" />
<glyph unicode="9" d="M50 0v150h700q200 0 200 200v100h-550q-350 0 -350 350v350q0 350 350 350h350q350 0 350 -350v-800q0 -350 -350 -350h-700zM200 800q0 -200 200 -200h550v550q0 200 -200 200h-350q-200 0 -200 -200v-350z" />
<glyph unicode=":" horiz-adv-x="350" d="M50 100q0 100 100 100t100 -100t-100 -100t-100 100zM50 925q0 100 100 100t100 -100t-100 -100t-100 100z" />
<glyph unicode=";" horiz-adv-x="350" d="M25 136l119 125q44 0 88.5 -65.5t44.5 -151.5q0 -109 -71 -226.5t-139 -117.5q73 86 87 233q0 119 -129 203zM50 925q0 100 100 100t100 -100t-100 -100t-100 100z" />
<glyph unicode="&#x3c;" horiz-adv-x="1014" d="M87 674v83l840 484v-167l-625 -359l625 -355v-167z" />
<glyph unicode="=" horiz-adv-x="1014" d="M87 491v140h840v-140h-840zM87 803v140h840v-140h-840z" />
<glyph unicode="&#x3e;" horiz-adv-x="1014" d="M87 193v167l625 355l-625 359v167l840 -484v-83z" />
<glyph unicode="?" d="M50 1350v150h650q400 0 400 -450q0 -400 -400 -400q-200 0 -200 -250v-100h-150v100q0 400 350 400q250 0 250 250q0 300 -250 300h-650zM325 75q0 100 100 100t100 -100t-100 -100t-100 100z" />
<glyph unicode="@" horiz-adv-x="2019" d="M100 508q0 242 124 464.5t345.5 342t456.5 119.5q362 0 609 -230t247 -566q0 -270 -176 -439q-175 -168 -346 -170q-63 1 -100.5 18t-61.5 54q-29 -37 -82 -64.5t-133 -27.5q-144 0 -256.5 100.5t-112.5 233.5q1 87 53 166.5t132.5 115t173.5 49.5q67 16 110 42.5 t43 74.5q-2 69 -41 125t-129 56q-72 0 -121.5 -59t-50.5 -125h-45v159q0 20 72 40q73 20 178 20q109 -2 193.5 -64.5t84.5 -157.5v-589q0 -117 94 -117q185 35 267 191.5t82 382.5q-20 335 -232 540q-197 188 -480 188q-205 0 -392.5 -137.5t-269.5 -355.5 q-67 -178 -67 -361q0 -313 129.5 -511.5t305 -290.5t318.5 -92q274 0 575 208v-75q-263 -184 -571 -184q-240 0 -461 122.5t-343 342t-122 461.5zM753 343q0 -107 64 -194t183 -87q97 5 126 167v476q-54 -63 -154 -83q-83 -10 -151 -80t-68 -199z" />
<glyph unicode="A" horiz-adv-x="1150" d="M25 0l430 1500h192l430 -1500h-156l-129 450h-482l-129 -450h-156zM353 600h396l-198 692z" />
<glyph unicode="B" d="M50 0v1500h550q475 0 475 -400q0 -223 -148 -322q173 -103 173 -353q0 -425 -500 -425h-550zM200 150h400q350 0 350 275t-350 275h-400v-550zM200 850h400q325 0 325 250t-325 250h-400v-500z" />
<glyph unicode="C" d="M50 350v800q0 350 350 350h350q350 0 350 -350h-150q0 200 -200 200h-350q-200 0 -200 -200v-800q0 -200 200 -200h350q200 0 200 200h150q0 -350 -350 -350h-350q-350 0 -350 350z" />
<glyph unicode="D" d="M50 0v1500h550q500 0 500 -500v-500q0 -500 -500 -500h-550zM200 150h400q350 0 350 350v500q0 350 -350 350h-400v-1200z" />
<glyph unicode="E" d="M50 0v1500h1050v-150h-900v-500h750v-150h-750v-550h900v-150h-1050z" />
<glyph unicode="F" d="M50 0v1500h1050v-150h-900v-500h750v-150h-750v-700h-150z" />
<glyph unicode="G" d="M50 350v800q0 350 350 350h350q350 0 350 -350h-150q0 200 -200 200h-350q-200 0 -200 -200v-800q0 -200 200 -200h350q200 0 200 200v269q0 42 -50 54v-2l-500 -115v155l500 114q200 -6 200 -256v-219q0 -350 -350 -350h-350q-350 0 -350 350z" />
<glyph unicode="H" d="M50 0v1500h150v-650h750v650h150v-1500h-150v700h-750v-700h-150z" />
<glyph unicode="I" horiz-adv-x="300" d="M50 0v1500h150v-1500h-150z" />
<glyph unicode="J" d="M50 350v150h150v-150q0 -200 200 -200h350q200 0 200 200v1150h150v-1150q0 -350 -350 -350h-350q-350 0 -350 350z" />
<glyph unicode="K" horiz-adv-x="1150" d="M50 0v1500h150v-695l751 695h149v-67l-737 -682l737 -682v-69h-146l-701 649l-53 -49v-600h-150z" />
<glyph unicode="L" d="M50 0v1500h150v-1350h900v-150h-1050z" />
<glyph unicode="M" horiz-adv-x="1525" d="M50 0h150v1129l457 -1129h162l456 1129v-1129h150v1500h-162l-525 -1301l-526 1301h-162v-1500z" />
<glyph unicode="N" d="M50 0v1500h151l749 -1216v1216h150v-1500h-151l-749 1216v-1216h-150z" />
<glyph unicode="O" d="M50 350v800q0 350 350 350h350q350 0 350 -350v-800q0 -350 -350 -350h-350q-350 0 -350 350zM200 350q0 -200 200 -200h350q200 0 200 200v800q0 200 -200 200h-350q-200 0 -200 -200v-800z" />
<glyph unicode="P" d="M50 0v1500h700q350 0 350 -350v-350q0 -350 -350 -350h-550v-450h-150zM200 600h550q200 0 200 200v350q0 200 -200 200h-550v-750z" />
<glyph unicode="Q" d="M50 350v800q0 350 350 350h350q350 0 350 -350v-800q0 -123 -43 -202l158 -158l-106 -106l-158 158q-80 -42 -201 -42h-350q-350 0 -350 350zM200 350q0 -200 200 -200h350q46 0 82 11l-182 181l106 106l183 -182q11 36 11 84v800q0 200 -200 200h-350q-200 0 -200 -200 v-800z" />
<glyph unicode="R" d="M50 0v1500h700q350 0 350 -350v-350q0 -347 -344 -350l394 -394v-56h-156l-450 450h-344v-450h-150zM200 600h550q200 0 200 200v350q0 200 -200 200h-550v-750z" />
<glyph unicode="S" d="M50 0v150h700q200 0 200 250t-200 250h-300q-400 0 -400 400q0 450 400 450h650v-150h-650q-250 0 -250 -300q0 -250 250 -250h300q350 0 350 -400t-350 -400h-700z" />
<glyph unicode="T" d="M50 1350v150h1050v-150h-450v-1350h-150v1350h-450z" />
<glyph unicode="U" d="M50 350v1150h150v-1150q0 -200 200 -200h350q200 0 200 200v1150h150v-1150q0 -350 -350 -350h-350q-350 0 -350 350z" />
<glyph unicode="V" horiz-adv-x="1150" d="M25 1500h156l370 -1292l370 1292h156l-430 -1500h-192z" />
<glyph unicode="W" horiz-adv-x="1650" d="M25 1500h153l272 -1176l272 1176h156l272 -1176l272 1176h153l-347 -1500h-156l-272 1176l-272 -1176h-156z" />
<glyph unicode="X" d="M46 1l452 750l-452 750h175l365 -605l364 605h175l-452 -750l452 -750h-175l-364 605l-365 -605h-175z" />
<glyph unicode="Y" d="M48 1500h175l365 -605l364 605h175l-452 -750v-750h-175v750z" />
<glyph unicode="Z" d="M50 0v166l871 1184h-871v150h1050v-160l-876 -1190h876v-150h-1050z" />
<glyph unicode="[" horiz-adv-x="758" />
<glyph unicode="\" horiz-adv-x="569" />
<glyph unicode="]" horiz-adv-x="758" />
<glyph unicode="^" horiz-adv-x="1014" />
<glyph unicode="_" d="M0 -150h1200v-150h-1200v150z" />
<glyph unicode="`" horiz-adv-x="650" d="M50 1351h170l343 -251h-170z" />
<glyph unicode="a" d="M50 300q0 218 152 250l747 170q-9 180 -199 180h-350q-200 0 -200 -200h-150q0 350 350 350h350q350 0 350 -350v-350q0 -350 -350 -350h-350q-350 0 -350 300zM200 350q0 -200 200 -200h350q200 0 200 200v215l-709 -163q-41 -14 -41 -52z" />
<glyph unicode="b" d="M50 350v1150h150v-450h550q350 0 350 -350v-350q0 -350 -350 -350h-350q-350 0 -350 350zM200 350q0 -200 200 -200h350q200 0 200 200v350q0 200 -200 200h-550v-550z" />
<glyph unicode="c" d="M50 350v350q0 350 350 350h350q350 0 350 -350h-150q0 200 -200 200h-350q-200 0 -200 -200v-350q0 -200 200 -200h350q200 0 200 200h150q0 -350 -350 -350h-350q-350 0 -350 350z" />
<glyph unicode="d" d="M50 350v350q0 350 350 350h550v450h150v-1150q0 -350 -350 -350h-350q-350 0 -350 350zM200 350q0 -200 200 -200h350q200 0 200 200v550h-550q-200 0 -200 -200v-350z" />
<glyph unicode="e" horiz-adv-x="1125" d="M25 350v350q0 350 350 350h350q350 0 350 -300q0 -218 -152 -250l-747 -170q9 -180 199 -180h350q200 0 200 200h150q0 -350 -350 -350h-350q-350 0 -350 350zM175 485l709 163q41 14 41 52q0 200 -200 200h-350q-200 0 -200 -200v-215z" />
<glyph unicode="f" horiz-adv-x="750" d="M50 900v150h150v100q0 350 350 350h100v-150h-100q-200 0 -200 -200v-100h250v-150h-250v-900h-150v900h-150z" />
<glyph unicode="g" d="M50 -300h700q200 0 200 200v100h-550q-350 0 -350 350v350q0 350 350 350h350q350 0 350 -350v-800q0 -350 -350 -350h-700v150zM200 350q0 -200 200 -200h550v550q0 200 -200 200h-350q-200 0 -200 -200v-350z" />
<glyph unicode="h" d="M50 0v1500h150v-450h400q500 0 500 -500v-550h-150v550q0 350 -350 350h-400v-900h-150z" />
<glyph unicode="i" horiz-adv-x="300" d="M25 1275q0 100 100 100t100 -100t-100 -100t-100 100zM50 0v1050h150v-1050h-150z" />
<glyph unicode="j" horiz-adv-x="300" d="M-200 -300h50q200 0 200 200v1150h150v-1150q0 -350 -350 -350h-50v150zM25 1275q0 100 100 100t100 -100t-100 -100t-100 100z" />
<glyph unicode="k" d="M50 0v1500h150v-1037l750 587h150v-73l-579 -453l579 -452v-72h-150l-550 429l-200 -156v-273h-150z" />
<glyph unicode="l" horiz-adv-x="300" d="M50 0v1500h150v-1500h-150z" />
<glyph unicode="m" horiz-adv-x="1800" d="M50 0v1050h400q238 0 362 -113q38 113 188 113h200q500 0 500 -500v-550h-150v550q0 350 -350 350h-200q-50 0 -50 -50v-850h-150v550q0 350 -350 350h-250v-900h-150z" />
<glyph unicode="n" d="M50 0v1050h550q500 0 500 -500v-550h-150v550q0 350 -350 350h-400v-900h-150z" />
<glyph unicode="o" d="M50 350v350q0 350 350 350h350q350 0 350 -350v-350q0 -350 -350 -350h-350q-350 0 -350 350zM200 350q0 -200 200 -200h350q200 0 200 200v350q0 200 -200 200h-350q-200 0 -200 -200v-350z" />
<glyph unicode="p" d="M50 -450v1150q0 350 350 350h350q350 0 350 -350v-350q0 -350 -350 -350h-550v-450h-150zM200 150h550q200 0 200 200v350q0 200 -200 200h-350q-200 0 -200 -200v-550z" />
<glyph unicode="q" d="M50 350v350q0 350 350 350h350q350 0 350 -350v-1150h-150v450h-550q-350 0 -350 350zM200 350q0 -200 200 -200h550v550q0 200 -200 200h-350q-200 0 -200 -200v-350z" />
<glyph unicode="r" horiz-adv-x="1050" d="M50 0v550q0 500 500 500h400v-150h-400q-350 0 -350 -350v-550h-150z" />
<glyph unicode="s" d="M50 0v150h750q150 0 150 150t-150 150h-450q-300 0 -300 300t300 300h750v-150h-750q-150 0 -150 -150t150 -150h450q300 0 300 -300t-300 -300h-750z" />
<glyph unicode="t" horiz-adv-x="750" d="M50 900v150h150v250h150v-250h250v-150h-250v-550q0 -200 200 -200h100v-150h-100q-350 0 -350 350v550h-150z" />
<glyph unicode="u" d="M50 350v700h150v-700q0 -200 200 -200h350q200 0 200 200v700h150v-700q0 -350 -350 -350h-350q-350 0 -350 350z" />
<glyph unicode="v" horiz-adv-x="1150" d="M25 1050h164l362 -865l361 865h163l-440 -1050h-169z" />
<glyph unicode="w" horiz-adv-x="1800" d="M25 1050h161l302 -842l301 842h172l302 -842l301 842h161l-378 -1050h-170l-302 841l-303 -841h-170z" />
<glyph unicode="x" d="M52 0l427 525l-427 525h192l331 -407l330 407h193l-427 -525l427 -525h-193l-330 406l-330 -406h-193z" />
<glyph unicode="y" d="M50 -300h700q200 0 200 200v142q-79 -42 -200 -42h-350q-350 0 -350 350v700h150v-700q0 -200 200 -200h350q200 0 200 200v700h150v-1150q0 -350 -350 -350h-700v150z" />
<glyph unicode="z" d="M50 0v150l824 750h-824v150h1050v-150l-826 -750h826v-150h-1050z" />
<glyph unicode="{" horiz-adv-x="1014" d="M240 638v60q172 5 223 71t51 133v468q0 74 77 141.5t185 67.5h108v-50h-90q-61 0 -107 -33.5t-47 -91.5v-500q0 -83 -60.5 -158.5t-142.5 -76.5v-2q82 -1 143 -76t61 -158l-1 -500q1 -58 47 -91.5t107 -33.5h90v-50h-108q-108 0 -184.5 67.5t-77.5 141.5v468 q0 66 -51 132t-223 71z" />
<glyph unicode="|" horiz-adv-x="1014" d="M427 -418v1995h160v-1995h-160z" />
<glyph unicode="}" horiz-adv-x="1014" d="M130 -192h90q61 0 107 33.5t47 91.5l-1 500q0 83 61 158t144 76v2q-83 1 -143.5 76.5t-60.5 158.5v500q-1 58 -47 91.5t-107 33.5h-90v50h108q108 0 185 -67.5t77 -141.5v-468q0 -67 51 -133t223 -71v-60q-172 -5 -223 -71t-51 -132v-468q-1 -74 -77.5 -141.5 t-184.5 -67.5h-108v50z" />
<glyph unicode="~" horiz-adv-x="1014" d="M94 556v156q64 73 123 99t114 26q64 0 181.5 -49.5t172.5 -49.5q52 0 108.5 28t129.5 112v-156q-63 -72 -122 -97.5t-116 -25.5q-60 0 -177.5 48.5t-176.5 48.5q-51 0 -107.5 -28t-129.5 -112z" />
<glyph unicode="&#xa1;" horiz-adv-x="300" d="M25 975q0 100 100 100t100 -100t-100 -100t-100 100zM50 -450v1200h150v-1200h-150z" />
<glyph unicode="&#xa2;" horiz-adv-x="1139" />
<glyph unicode="&#xa3;" horiz-adv-x="1014" d="M76 673v60h135q-58 143 -58 253q0 226 123.5 347t306.5 121h4q75 0 185.5 -14t110.5 -34v-161h-58q-5 61 -77 102q-72 31 -160 31h-2q-100 0 -190 -101q-84 -93 -84 -241q0 -15 1 -30q0 -135 53 -273h360v-60h-334q14 -30 31 -60q35 -63 35 -138q0 -161 -162 -375h402 q130 0 189 132l49 -1l-103 -231h-719l1 50q187 238 187 418q0 77 -34 143q-17 32 -31 62h-161z" />
<glyph unicode="&#xa4;" horiz-adv-x="1014" d="M122 413l118 117q-32 46 -48 103q-12 42 -12 84q0 44 13 87q16 55 47 99l-118 118l80 81l118 -118q44 30 99 46q44 14 89 14q41 0 83 -12q57 -17 102 -48l118 118l80 -81l-117 -117q31 -46 48 -102q12 -42 12 -85q0 -42 -12 -85q-17 -56 -48 -102l117 -117l-80 -81 l-118 118q-45 -32 -101 -48q-42 -12 -85 -12q-42 0 -85 12q-57 16 -102 48l-118 -118zM284 716q0 -28 9 -56q16 -59 57 -100q41 -40 99 -57q29 -8 58 -8t58 8q58 17 99 57q40 41 57 99q9 29 9 58t-9 58q-17 58 -57 99q-41 40 -100 57q-29 8 -58 8t-58 -9q-58 -17 -98 -56 q-39 -40 -56 -98q-10 -30 -10 -60z" />
<glyph unicode="&#xa5;" horiz-adv-x="1262" d="M8 1176q0 19 10.5 27.5t32.5 8.5q27 0 123 -8t164 -8h57h31q33 0 41 -6.5t8 -26.5q0 -8 -15 -14t-38 -6q-6 0 -18.5 2t-18.5 2q-24 0 -37.5 -9.5t-13.5 -25.5q0 -18 16.5 -52t46.5 -77l158 -221q13 -19 33 -53q41 -70 71 -70q9 0 16.5 5t14.5 15l277 396q8 12 13 26.5 t5 24.5q0 18 -10 27t-37 14q-15 2 -41 4q-47 3 -47 25q0 15 8 22.5t25 7.5q3 0 15 -1q56 -7 108 -7h139q30 0 65 1t37 1q11 0 18.5 -4.5t8.5 -11.5q0 -28 -38 -34q-18 -3 -27 -5q-63 -15 -147 -117q-7 -9 -12 -15l-169 -206h323q15 0 24 -6t9 -17q0 -15 -6 -20.5t-23 -5.5 h-366q-46 -57 -96.5 -112.5t-52.5 -59.5h511q18 0 25.5 -5.5t7.5 -17.5q0 -14 -7 -21t-22 -7h-530q0 -11 -1 -30.5t-1 -29.5l2 -215q0 -114 5.5 -150t20.5 -44q30 -17 107.5 -19t77.5 -31q0 -12 -10 -20t-25 -8q-2 0 -35.5 4t-64.5 4q-91 0 -208.5 -4t-142.5 -4q-31 0 -40 4 t-9 16t8 18.5t37 12.5q9 2 25 5q74 16 92 32q17 13 24 47t7 102l-2 242q0 19 -1.5 35t-4.5 32l-484 1q-14 0 -21 6.5t-7 19.5t6.5 19t21.5 6h467l-121 172h-344q-17 0 -23.5 5.5t-6.5 18.5q0 14 6 19.5t22 5.5h307q-43 57 -108 155q-131 197 -227 197q-7 0 -13 5.5t-6 11.5z " />
<glyph unicode="&#xa6;" horiz-adv-x="1014" d="M427 371h160v-789h-160v789zM427 789v789h160v-789h-160z" />
<glyph unicode="&#xa7;" horiz-adv-x="1014" d="M170 1130q0 148 89 237q82 79 216 86q8 1 17 1h3q66 0 163 -16.5t97 -41.5v-194h-51q-5 81 -80 132q-70 47 -149 51h-15q-78 0 -125 -44.5t-47 -117.5q0 -132 287 -269q149 -67 204.5 -143.5t55.5 -187.5q0 -171 -101 -282q-47 -39 -99 -64q108 -56 154 -118 q55 -77 55 -187q0 -171 -101 -283q-124 -102 -277 -105v1q-6 -1 -13 -1h-3q-66 0 -163 16.5t-97 41.5v194h51q5 -81 80 -132q68 -45 145 -50q113 6 185 69q72 64 72 165q0 125 -316 276q-123 64 -175.5 137t-52.5 177q0 148 89 237q67 65 170 82l-40 19q-123 64 -175.5 137 t-52.5 177zM297 571q0 -123 248 -250q56 16 97 53q73 65 73 166q0 5 -1 10h-2q-1 14 -4 27q-22 61 -113 127q-59 29 -126 29q-78 0 -125 -44.5t-47 -117.5z" />
<glyph unicode="&#xa8;" horiz-adv-x="650" d="M50 1150q0 100 100 100t100 -100t-100 -100t-100 100zM350 1150q0 100 100 100t100 -100t-100 -100t-100 100z" />
<glyph unicode="&#xa9;" horiz-adv-x="1674" d="M100 718q0 148 55.5 283t159.5 238q102 104 238.5 160.5t286.5 56.5q145 0 280 -56.5t239 -160.5q102 -101 158.5 -238t56.5 -283q0 -147 -56.5 -282t-162.5 -240q-105 -105 -239 -159.5t-283 -54.5q-146 0 -278 55.5t-238 160.5q-106 104 -161.5 237.5t-55.5 282.5z M160 718q0 -137 51 -259t148 -219q98 -96 219 -147t256 -51q137 0 259.5 50.5t219.5 145.5q97 98 149 221.5t52 258.5q0 134 -52 259.5t-145 219.5q-96 96 -220 147.5t-258 51.5q-137 0 -262 -51.5t-220 -147.5t-146 -219.5t-51 -259.5zM351 719q0 126 65.5 244t187.5 184.5 t254 66.5q38 0 75 -6.5t76 -20.5q5 -1 9 -1q19 0 26 30h42l72 -198h-44q-52 94 -131 124q-72 26 -147 26h-15q-86 -8 -166.5 -71t-121.5 -177q-33 -90 -33 -184q0 -25 2 -50q11 -121 69.5 -224t149.5 -152q72 -40 166 -42q124 0 194 56t70 126h53v-100q0 -46 -96.5 -86.5 t-242.5 -40.5q-142 0 -264 68t-186 185t-64 243z" />
<glyph unicode="&#xaa;" horiz-adv-x="648" />
<glyph unicode="&#xab;" horiz-adv-x="944" d="M174 479l342 303h14v-37l-205 -266l205 -266v-37h-14zM487 479l342 303h14v-37l-205 -266l205 -266v-37h-14z" />
<glyph unicode="&#xac;" horiz-adv-x="1014" d="M87 667v100h840v-491l-1 -1h-98v392h-741z" />
<glyph unicode="&#xad;" horiz-adv-x="670" d="M116 437v83q0 29 41 29h356q41 0 41 -29v-83q0 -28 -40 -28h-358q-40 0 -40 28z" />
<glyph unicode="&#xae;" horiz-adv-x="1674" d="M100 718q0 148 55.5 283t159.5 238q102 104 238.5 160.5t286.5 56.5q145 0 280 -56.5t239 -160.5q102 -101 158.5 -238t56.5 -283q0 -147 -56.5 -282t-162.5 -240q-105 -105 -239 -159.5t-283 -54.5q-146 0 -278 55.5t-238 160.5q-106 104 -161.5 237.5t-55.5 282.5z M160 718q0 -137 51 -259t148 -219q98 -96 219 -147t256 -51q137 0 259.5 50.5t219.5 145.5q97 98 149 221.5t52 258.5q0 134 -52 259.5t-145 219.5q-96 96 -220 147.5t-258 51.5q-137 0 -262 -51.5t-220 -147.5t-146 -219.5t-51 -259.5zM524 269v50h43q37 0 37 121v538 q0 121 -37 121h-43v70h356q64 -1 125 -42q60 -41 92.5 -114t32.5 -152q0 -78 -32 -150.5t-114 -134.5l82 -116q100 -141 150 -141h34v-50h-346v50h45q30 0 30 22q0 29 -69 114l-75 102q-42 0 -84 42v-159q0 -121 36 -121h53v-50h-316zM751 725l3 -8q23 -56 56 -81 q29 -22 56 -22h6q31 4 61.5 38.5t46.5 97.5q13 50 13 103q0 13 -1 27q-4 67 -28 124.5t-56.5 76t-63.5 18.5h-93v-374z" />
<glyph unicode="&#xaf;" horiz-adv-x="670" />
<glyph unicode="&#xb0;" horiz-adv-x="674" d="M60 1164q0 116 81.5 197t197.5 81q115 0 196 -81.5t81 -196.5q0 -114 -82 -196t-197 -82q-117 0 -197 81t-80 197zM130 1163q0 -87 61 -147t148 -60t147 60t60 147t-60.5 148t-146.5 61t-147.5 -61t-61.5 -148z" />
<glyph unicode="&#xb1;" horiz-adv-x="1014" />
<glyph unicode="&#xb2;" horiz-adv-x="1014" />
<glyph unicode="&#xb3;" horiz-adv-x="1014" />
<glyph unicode="&#xb4;" horiz-adv-x="650" d="M50 1100l343 251h170l-343 -251h-170z" />
<glyph unicode="&#xb6;" horiz-adv-x="1024" d="M93 1086q0 157 107.5 253t285.5 96h443v-70h-127v-1365h-82v1365h-166v-1365h-84v738q-174 8 -275.5 102.5t-101.5 245.5z" />
<glyph unicode="&#xb7;" horiz-adv-x="350" d="M50 600q0 100 100 100t100 -100t-100 -100t-100 100z" />
<glyph unicode="&#xb8;" horiz-adv-x="1024" d="M360 -290q85 -52 152 -52q66 0 94.5 21.5t28.5 66.5t-49 64q-40 16 -102 16q-16 0 -34 -2l48 176h63l-37 -104q32 4 62 5q86 0 134 -40.5t48 -113.5q0 -76 -58.5 -120.5t-160.5 -44.5q-109 0 -189 32v96z" />
<glyph unicode="&#xb9;" horiz-adv-x="1014" />
<glyph unicode="&#xba;" horiz-adv-x="718" />
<glyph unicode="&#xbb;" horiz-adv-x="944" d="M101 176v37l205 266l-205 266v37h14l342 -303l-342 -303h-14zM414 176v37l205 266l-205 266v37h14l342 -303l-342 -303h-14z" />
<glyph unicode="&#xbc;" horiz-adv-x="1708" />
<glyph unicode="&#xbd;" horiz-adv-x="1964" />
<glyph unicode="&#xbe;" horiz-adv-x="1708" />
<glyph unicode="&#xbf;" horiz-adv-x="748" />
<glyph unicode="&#xc0;" horiz-adv-x="1150" d="M25 0l430 1500h192l430 -1500h-156l-129 450h-482l-129 -450h-156zM112 1850h170l343 -251h-170zM353 600h396l-198 692z" />
<glyph unicode="&#xc1;" horiz-adv-x="1150" d="M25 0l430 1500h192l430 -1500h-156l-129 450h-482l-129 -450h-156zM353 600h396l-198 692zM463 1600l343 251h170l-343 -251h-170z" />
<glyph unicode="&#xc2;" horiz-adv-x="1150" d="M25 0l430 1500h192l430 -1500h-156l-129 450h-482l-129 -450h-156zM285 1600l203 251h128l-202 -251h-129zM353 600h396l-198 692zM485 1851h129l202 -251h-129z" />
<glyph unicode="&#xc3;" horiz-adv-x="1540" />
<glyph unicode="&#xc4;" horiz-adv-x="1150" d="M25 0l430 1500h192l430 -1500h-156l-129 450h-482l-129 -450h-156zM300 1700q0 100 100 100t100 -100t-100 -100t-100 100zM353 600h396l-198 692zM600 1700q0 100 100 100t100 -100t-100 -100t-100 100z" />
<glyph unicode="&#xc5;" horiz-adv-x="1540" />
<glyph unicode="&#xc6;" horiz-adv-x="2118" />
<glyph unicode="&#xc7;" horiz-adv-x="1399" />
<glyph unicode="&#xc8;" d="M50 0v1500h1050v-150h-900v-500h750v-150h-750v-550h900v-150h-1050zM200 1851h170l343 -251h-170z" />
<glyph unicode="&#xc9;" d="M50 0v1500h1050v-150h-900v-500h750v-150h-750v-550h900v-150h-1050zM487 1599l343 251h170l-343 -251h-170z" />
<glyph unicode="&#xca;" d="M50 0v1500h1050v-150h-900v-500h750v-150h-750v-550h900v-150h-1050zM300 1600l203 251h128l-202 -251h-129zM500 1851h129l202 -251h-129z" />
<glyph unicode="&#xcb;" d="M50 0v1500h1050v-150h-900v-500h750v-150h-750v-550h900v-150h-1050zM325 1700q0 100 100 100t100 -100t-100 -100t-100 100zM625 1700q0 100 100 100t100 -100t-100 -100t-100 100z" />
<glyph unicode="&#xcc;" horiz-adv-x="300" d="M-300 1851h170l343 -251h-170zM50 0v1500h150v-1500h-150z" />
<glyph unicode="&#xcd;" horiz-adv-x="300" d="M37 1600l343 251h170l-343 -251h-170zM50 0v1500h150v-1500h-150z" />
<glyph unicode="&#xce;" horiz-adv-x="300" d="M-150 1599l203 251h128l-202 -251h-129zM50 0v1500h150v-1500h-150zM50 1850h129l202 -251h-129z" />
<glyph unicode="&#xcf;" horiz-adv-x="300" d="M34 1700q0 100 100 100t100 -100t-100 -100t-100 100zM209 0v1500h150v-1500h-150zM334 1700q0 100 100 100t100 -100t-100 -100t-100 100z" />
<glyph unicode="&#xd0;" horiz-adv-x="1400" d="M40 650v150h960v-150h-960zM240 0v1500h550q500 0 500 -500v-500q0 -500 -500 -500h-550zM390 150h400q350 0 350 350v500q0 350 -350 350h-400v-1200z" />
<glyph unicode="&#xd1;" horiz-adv-x="1554" />
<glyph unicode="&#xd2;" d="M50 350v800q0 350 350 350h350q350 0 350 -350v-800q0 -350 -350 -350h-350q-350 0 -350 350zM150 1850h170l343 -251h-170zM200 350q0 -200 200 -200h350q200 0 200 200v800q0 200 -200 200h-350q-200 0 -200 -200v-800z" />
<glyph unicode="&#xd3;" d="M50 350v800q0 350 350 350h350q350 0 350 -350v-800q0 -350 -350 -350h-350q-350 0 -350 350zM200 350q0 -200 200 -200h350q200 0 200 200v800q0 200 -200 200h-350q-200 0 -200 -200v-800zM487 1600l343 251h170l-343 -251h-170z" />
<glyph unicode="&#xd4;" d="M50 350v800q0 350 350 350h350q350 0 350 -350v-800q0 -350 -350 -350h-350q-350 0 -350 350zM200 350q0 -200 200 -200h350q200 0 200 200v800q0 200 -200 200h-350q-200 0 -200 -200v-800zM300 1600l203 251h128l-202 -251h-129zM500 1851h129l202 -251h-129z" />
<glyph unicode="&#xd5;" horiz-adv-x="1614" />
<glyph unicode="&#xd6;" d="M50 350v800q0 350 350 350h350q350 0 350 -350v-800q0 -350 -350 -350h-350q-350 0 -350 350zM200 350q0 -200 200 -200h350q200 0 200 200v800q0 200 -200 200h-350q-200 0 -200 -200v-800zM325 1700q0 100 100 100t100 -100t-100 -100t-100 100zM625 1700 q0 100 100 100t100 -100t-100 -100t-100 100z" />
<glyph unicode="&#xd7;" horiz-adv-x="1014" d="M161 470l247 247l-247 248l99 98l247 -247l248 247l98 -99l-247 -247l247 -247l-99 -99l-247 247l-247 -247z" />
<glyph unicode="&#xd8;" horiz-adv-x="1614" />
<glyph unicode="&#xd9;" d="M50 350v1150h150v-1150q0 -200 200 -200h350q200 0 200 200v1150h150v-1150q0 -350 -350 -350h-350q-350 0 -350 350zM187 1851h170l343 -251h-170z" />
<glyph unicode="&#xda;" d="M50 350v1150h150v-1150q0 -200 200 -200h350q200 0 200 200v1150h150v-1150q0 -350 -350 -350h-350q-350 0 -350 350zM450 1600l343 251h170l-343 -251h-170z" />
<glyph unicode="&#xdb;" d="M50 350v1150h150v-1150q0 -200 200 -200h350q200 0 200 200v1150h150v-1150q0 -350 -350 -350h-350q-350 0 -350 350zM300 1600l203 251h128l-202 -251h-129zM500 1851h129l202 -251h-129z" />
<glyph unicode="&#xdc;" d="M50 350v1150h150v-1150q0 -200 200 -200h350q200 0 200 200v1150h150v-1150q0 -350 -350 -350h-350q-350 0 -350 350zM325 1700q0 100 100 100t100 -100t-100 -100t-100 100zM625 1700q0 100 100 100t100 -100t-100 -100t-100 100z" />
<glyph unicode="&#xdd;" d="M48 1500h175l365 -605l364 605h175l-452 -750v-750h-175v750zM500 1600l343 251h170l-343 -251h-170z" />
<glyph unicode="&#xde;" d="M50 0v1500h150v-1500h-150zM200 250v150h550q200 0 200 200v150h150v-150q0 -350 -350 -350h-550zM200 1150v150h550q350 0 350 -350v-200h-150v200q0 200 -200 200h-550z" />
<glyph unicode="&#xdf;" horiz-adv-x="1251" />
<glyph unicode="&#xe0;" d="M50 300q0 218 152 250l747 170q-9 180 -199 180h-350q-200 0 -200 -200h-150q0 350 350 350h350q350 0 350 -350v-350q0 -350 -350 -350h-350q-350 0 -350 300zM150 1401h170l343 -251h-170zM200 350q0 -200 200 -200h350q200 0 200 200v215l-709 -163q-41 -14 -41 -52z " />
<glyph unicode="&#xe1;" d="M50 300q0 218 152 250l747 170q-9 180 -199 180h-350q-200 0 -200 -200h-150q0 350 350 350h350q350 0 350 -350v-350q0 -350 -350 -350h-350q-350 0 -350 300zM200 350q0 -200 200 -200h350q200 0 200 200v215l-709 -163q-41 -14 -41 -52zM500 1149l343 251h170 l-343 -251h-170z" />
<glyph unicode="&#xe2;" d="M50 300q0 218 152 250l747 170q-9 180 -199 180h-350q-200 0 -200 -200h-150q0 350 350 350h350q350 0 350 -350v-350q0 -350 -350 -350h-350q-350 0 -350 300zM200 350q0 -200 200 -200h350q200 0 200 200v215l-709 -163q-41 -14 -41 -52zM319 1149l203 251h128 l-202 -251h-129zM519 1400h129l202 -251h-129z" />
<glyph unicode="&#xe3;" horiz-adv-x="922" />
<glyph unicode="&#xe4;" d="M50 300q0 218 152 250l747 170q-9 180 -199 180h-350q-200 0 -200 -200h-150q0 350 350 350h350q350 0 350 -350v-350q0 -350 -350 -350h-350q-350 0 -350 300zM200 350q0 -200 200 -200h350q200 0 200 200v215l-709 -163q-41 -14 -41 -52zM325 1200q0 100 100 100 t100 -100t-100 -100t-100 100zM625 1200q0 100 100 100t100 -100t-100 -100t-100 100z" />
<glyph unicode="&#xe5;" horiz-adv-x="922" />
<glyph unicode="&#xe6;" horiz-adv-x="1454" />
<glyph unicode="&#xe7;" horiz-adv-x="905" />
<glyph unicode="&#xe8;" horiz-adv-x="1125" d="M25 350v350q0 350 350 350h350q350 0 350 -300q0 -218 -152 -250l-747 -170q9 -180 199 -180h350q200 0 200 200h150q0 -350 -350 -350h-350q-350 0 -350 350zM150 1401h170l343 -251h-170zM175 485l709 163q41 14 41 52q0 200 -200 200h-350q-200 0 -200 -200v-215z" />
<glyph unicode="&#xe9;" horiz-adv-x="1125" d="M25 350v350q0 350 350 350h350q350 0 350 -300q0 -218 -152 -250l-747 -170q9 -180 199 -180h350q200 0 200 200h150q0 -350 -350 -350h-350q-350 0 -350 350zM175 485l709 163q41 14 41 52q0 200 -200 200h-350q-200 0 -200 -200v-215zM450 1150l343 251h170l-343 -251 h-170z" />
<glyph unicode="&#xea;" horiz-adv-x="1125" d="M25 350v350q0 350 350 350h350q350 0 350 -300q0 -218 -152 -250l-747 -170q9 -180 199 -180h350q200 0 200 200h150q0 -350 -350 -350h-350q-350 0 -350 350zM175 485l709 163q41 14 41 52q0 200 -200 200h-350q-200 0 -200 -200v-215zM300 1149l203 251h128l-202 -251 h-129zM500 1400h129l202 -251h-129z" />
<glyph unicode="&#xeb;" horiz-adv-x="1125" d="M25 350v350q0 350 350 350h350q350 0 350 -300q0 -218 -152 -250l-747 -170q9 -180 199 -180h350q200 0 200 200h150q0 -350 -350 -350h-350q-350 0 -350 350zM175 485l709 163q41 14 41 52q0 200 -200 200h-350q-200 0 -200 -200v-215zM300 1250q0 100 100 100t100 -100 t-100 -100t-100 100zM600 1250q0 100 100 100t100 -100t-100 -100t-100 100z" />
<glyph unicode="&#xec;" horiz-adv-x="300" d="M-300 1401h170l343 -251h-170zM50 0v1050h150v-1050h-150z" />
<glyph unicode="&#xed;" horiz-adv-x="300" d="M37 1100l343 251h170l-343 -251h-170zM50 0v1050h150v-1050h-150z" />
<glyph unicode="&#xee;" horiz-adv-x="300" d="M-150 1150l203 251h128l-202 -251h-129zM50 0v1050h150v-1050h-150zM50 1401h129l202 -251h-129z" />
<glyph unicode="&#xef;" horiz-adv-x="300" d="M-125 1250q0 100 100 100t100 -100t-100 -100t-100 100zM50 0v1050h150v-1050h-150zM175 1250q0 100 100 100t100 -100t-100 -100t-100 100z" />
<glyph unicode="&#xf0;" horiz-adv-x="1139" />
<glyph unicode="&#xf1;" horiz-adv-x="1108" />
<glyph unicode="&#xf2;" d="M50 350v350q0 350 350 350h350q350 0 350 -350v-350q0 -350 -350 -350h-350q-350 0 -350 350zM150 1401h170l343 -251h-170zM200 350q0 -200 200 -200h350q200 0 200 200v350q0 200 -200 200h-350q-200 0 -200 -200v-350z" />
<glyph unicode="&#xf3;" d="M50 350v350q0 350 350 350h350q350 0 350 -350v-350q0 -350 -350 -350h-350q-350 0 -350 350zM200 350q0 -200 200 -200h350q200 0 200 200v350q0 200 -200 200h-350q-200 0 -200 -200v-350zM487 1150l343 251h170l-343 -251h-170z" />
<glyph unicode="&#xf4;" d="M50 350v350q0 350 350 350h350q350 0 350 -350v-350q0 -350 -350 -350h-350q-350 0 -350 350zM200 350q0 -200 200 -200h350q200 0 200 200v350q0 200 -200 200h-350q-200 0 -200 -200v-350zM300 1150l203 251h128l-202 -251h-129zM500 1401h129l202 -251h-129z" />
<glyph unicode="&#xf5;" horiz-adv-x="1010" />
<glyph unicode="&#xf6;" d="M50 350v350q0 350 350 350h350q350 0 350 -350v-350q0 -350 -350 -350h-350q-350 0 -350 350zM200 350q0 -200 200 -200h350q200 0 200 200v350q0 200 -200 200h-350q-200 0 -200 -200v-350zM325 1250q0 100 100 100t100 -100t-100 -100t-100 100zM625 1250 q0 100 100 100t100 -100t-100 -100t-100 100z" />
<glyph unicode="&#xf7;" horiz-adv-x="1014" d="M87 647v140h839l1 -1v-139h-840zM382 377q0 15 16 31l82 84q15 14 29 14q13 0 31 -16l80 -86q12 -16 12 -29q0 -15 -14 -31l-80 -88q-20 -20 -29 -20q-16 0 -29 14l-88 101q-10 13 -10 26zM382 1070q0 15 16 31l82 84q15 14 29 14q13 0 31 -16l80 -86q12 -16 12 -29 q0 -15 -14 -31l-80 -88q-20 -20 -29 -20q-16 0 -29 14l-88 101q-10 13 -10 26z" />
<glyph unicode="&#xf8;" horiz-adv-x="1010" />
<glyph unicode="&#xf9;" d="M50 350v700h150v-700q0 -200 200 -200h350q200 0 200 200v700h150v-700q0 -350 -350 -350h-350q-350 0 -350 350zM150 1401h170l343 -251h-170z" />
<glyph unicode="&#xfa;" d="M50 350v700h150v-700q0 -200 200 -200h350q200 0 200 200v700h150v-700q0 -350 -350 -350h-350q-350 0 -350 350zM487 1150l343 251h170l-343 -251h-170z" />
<glyph unicode="&#xfb;" d="M50 350v700h150v-700q0 -200 200 -200h350q200 0 200 200v700h150v-700q0 -350 -350 -350h-350q-350 0 -350 350zM300 1150l203 251h128l-202 -251h-129zM500 1401h129l202 -251h-129z" />
<glyph unicode="&#xfc;" d="M50 350v700h150v-700q0 -200 200 -200h350q200 0 200 200v700h150v-700q0 -350 -350 -350h-350q-350 0 -350 350zM325 1250q0 100 100 100t100 -100t-100 -100t-100 100zM625 1250q0 100 100 100t100 -100t-100 -100t-100 100z" />
<glyph unicode="&#xfd;" d="M50 -300h700q200 0 200 200v142q-79 -42 -200 -42h-350q-350 0 -350 350v700h150v-700q0 -200 200 -200h350q200 0 200 200v700h150v-1150q0 -350 -350 -350h-700v150zM487 1150l343 251h170l-343 -251h-170z" />
<glyph unicode="&#xfe;" d="M50 -450v1950h150v-1950h-150zM50 600v100q0 350 350 350h200v-150h-200q-200 0 -200 -200v-100h-150zM200 0v150h400v-150h-400zM600 0v150h150q200 0 200 200v150h150v-150q0 -350 -350 -350h-150zM600 900v150h150q350 0 350 -350v-200h-150v200q0 200 -200 200h-150z " />
<glyph unicode="&#xff;" d="M50 -300h700q200 0 200 200v142q-79 -42 -200 -42h-350q-350 0 -350 350v700h150v-700q0 -200 200 -200h350q200 0 200 200v700h150v-1150q0 -350 -350 -350h-700v150zM325 1250q0 100 100 100t100 -100t-100 -100t-100 100zM625 1250q0 100 100 100t100 -100t-100 -100 t-100 100z" />
<glyph unicode="&#x152;" horiz-adv-x="0" />
<glyph unicode="&#x153;" horiz-adv-x="0" />
<glyph unicode="&#x178;" d="M48 1500h175l365 -605l364 605h175l-452 -750v-750h-175v750zM350 1700q0 100 100 100t100 -100t-100 -100t-100 100zM650 1700q0 100 100 100t100 -100t-100 -100t-100 100z" />
<glyph unicode="&#x2c6;" horiz-adv-x="675" d="M50 1100l203 251h128l-202 -251h-129zM250 1351h129l202 -251h-129z" />
<glyph unicode="&#x2dc;" horiz-adv-x="1024" d="M234 1132q19 106 68 158.5t129 52.5q46 -1 113 -24q64 -23 112 -23h4q36 0 58 20t36 66h54q-20 -103 -68.5 -154t-126.5 -51h-4q-50 0 -113 23q-66 24 -114 24q-39 0 -60.5 -20.5t-33.5 -71.5h-54z" />
<glyph unicode="&#x2000;" horiz-adv-x="925" />
<glyph unicode="&#x2001;" horiz-adv-x="1851" />
<glyph unicode="&#x2002;" horiz-adv-x="925" />
<glyph unicode="&#x2003;" horiz-adv-x="1851" />
<glyph unicode="&#x2004;" horiz-adv-x="617" />
<glyph unicode="&#x2005;" horiz-adv-x="462" />
<glyph unicode="&#x2006;" horiz-adv-x="308" />
<glyph unicode="&#x2007;" horiz-adv-x="308" />
<glyph unicode="&#x2008;" horiz-adv-x="231" />
<glyph unicode="&#x2009;" horiz-adv-x="370" />
<glyph unicode="&#x200a;" horiz-adv-x="102" />
<glyph unicode="&#x2010;" horiz-adv-x="670" d="M116 437v83q0 29 41 29h356q41 0 41 -29v-83q0 -28 -40 -28h-358q-40 0 -40 28z" />
<glyph unicode="&#x2011;" horiz-adv-x="670" d="M116 437v83q0 29 41 29h356q41 0 41 -29v-83q0 -28 -40 -28h-358q-40 0 -40 28z" />
<glyph unicode="&#x2012;" horiz-adv-x="670" d="M116 437v83q0 29 41 29h356q41 0 41 -29v-83q0 -28 -40 -28h-358q-40 0 -40 28z" />
<glyph unicode="&#x2013;" horiz-adv-x="1108" d="M56 419v120h996v-120h-996z" />
<glyph unicode="&#x2014;" horiz-adv-x="2048" d="M0 419v120h2048v-120h-2048z" />
<glyph unicode="&#x2018;" horiz-adv-x="400" d="M50 1333q0 86 44.5 151.5t88.5 65.5l119 -125q-129 -84 -129 -203q14 -147 87 -233q-68 0 -139 117.5t-71 226.5z" />
<glyph unicode="&#x2019;" horiz-adv-x="400" d="M50 1425l119 125q44 0 88.5 -65.5t44.5 -151.5q0 -109 -71 -226.5t-139 -117.5q73 86 87 233q0 119 -129 203z" />
<glyph unicode="&#x201a;" horiz-adv-x="400" d="M44 133l119 125q44 0 88.5 -65.5t44.5 -151.5q0 -109 -71 -226.5t-139 -117.5q73 86 87 233q0 119 -129 203z" />
<glyph unicode="&#x201c;" horiz-adv-x="750" d="M50 1333q0 86 44.5 151.5t88.5 65.5l119 -125q-129 -84 -129 -203q14 -147 87 -233q-68 0 -139 117.5t-71 226.5zM400 1333q0 86 44.5 151.5t88.5 65.5l119 -125q-129 -84 -129 -203q14 -147 87 -233q-68 0 -139 117.5t-71 226.5z" />
<glyph unicode="&#x201d;" horiz-adv-x="750" d="M50 1425l119 125q44 0 88.5 -65.5t44.5 -151.5q0 -109 -71 -226.5t-139 -117.5q73 86 87 233q0 119 -129 203zM398 1425l119 125q44 0 88.5 -65.5t44.5 -151.5q0 -109 -71 -226.5t-139 -117.5q73 86 87 233q0 119 -129 203z" />
<glyph unicode="&#x201e;" horiz-adv-x="750" d="M44 133l119 125q44 0 88.5 -65.5t44.5 -151.5q0 -109 -71 -226.5t-139 -117.5q73 86 87 233q0 119 -129 203zM400 125l119 125q44 0 88.5 -65.5t44.5 -151.5q0 -109 -71 -226.5t-139 -117.5q73 86 87 233q0 119 -129 203z" />
<glyph unicode="&#x2022;" horiz-adv-x="1024" d="M216 718q0 123 87 209t210 86q122 0 208.5 -86.5t86.5 -208.5t-87.5 -209.5t-209.5 -87.5q-123 0 -209 87t-86 210z" />
<glyph unicode="&#x2026;" horiz-adv-x="1150" d="M50 100q0 100 100 100t100 -100t-100 -100t-100 100zM450 100q0 100 100 100t100 -100t-100 -100t-100 100zM850 100q0 100 100 100t100 -100t-100 -100t-100 100z" />
<glyph unicode="&#x202f;" horiz-adv-x="370" />
<glyph unicode="&#x2039;" horiz-adv-x="631" d="M174 479l342 303h14v-37l-205 -266l205 -266v-37h-14z" />
<glyph unicode="&#x203a;" horiz-adv-x="631" d="M101 176v37l205 266l-205 266v37h14l342 -303l-342 -303h-14z" />
<glyph unicode="&#x205f;" horiz-adv-x="462" />
<glyph unicode="&#x20ac;" horiz-adv-x="1014" d="M-44 653l17 60h87v29q0 16 1 31h-71l17 60h58q14 145 76 281q81 178 226 274t298 96q43 0 87 -8q40 -10 82 -29q8 -6 16 -6q20 0 34 45h41l84 -281l-40 -1q-49 134 -138 178q-43 22 -81 32v3q-50 16 -101 16q-17 0 -34 -2q-120 -12 -226 -113.5t-157 -273.5 q-32 -104 -39 -211h706l-17 -60h-692q0 -30 2 -60h674l-17 -60h-652q17 -158 83 -298q74 -157 193 -236q102 -68 216 -69q186 3 256 91q74 91 74 185h48v-143q0 -70 -111 -127q-105 -54 -267 -56q-181 0 -325.5 98t-223.5 274q-62 135 -76 281h-108z" />
<glyph unicode="&#x2122;" horiz-adv-x="1497" />
<glyph unicode="&#xe000;" horiz-adv-x="1050" d="M0 0v1050h1050v-1050h-1050z" />
</font>
</defs>
</svg>
